<svg width="30" height="30" viewBox="0 0 30 30" fill="none" xmlns="http://www.w3.org/2000/svg">
<g filter="url(#filter0_i_106_1802)">
<path d="M22.0401 5.27998C22.5089 7.19248 22.5651 9.27373 22.0589 11.43C20.8776 16.4269 16.7714 20.3456 11.7276 21.255C8.9995 21.7519 6.40262 21.3769 4.14325 20.3925C3.61825 20.1581 3.12137 20.7581 3.39325 21.2644C5.87762 25.8394 10.9964 28.7644 16.7245 28.005C22.5651 27.2269 27.2432 22.4644 27.9464 16.6144C28.5089 11.7581 26.4464 7.37061 22.9964 4.66123C22.5557 4.32373 21.9089 4.73623 22.0401 5.27998Z" fill="url(#paint0_linear_106_1802)"/>
<path d="M22.0401 5.27998C22.5089 7.19248 22.5651 9.27373 22.0589 11.43C20.8776 16.4269 16.7714 20.3456 11.7276 21.255C8.9995 21.7519 6.40262 21.3769 4.14325 20.3925C3.61825 20.1581 3.12137 20.7581 3.39325 21.2644C5.87762 25.8394 10.9964 28.7644 16.7245 28.005C22.5651 27.2269 27.2432 22.4644 27.9464 16.6144C28.5089 11.7581 26.4464 7.37061 22.9964 4.66123C22.5557 4.32373 21.9089 4.73623 22.0401 5.27998Z" fill="url(#paint1_radial_106_1802)"/>
<path d="M22.0401 5.27998C22.5089 7.19248 22.5651 9.27373 22.0589 11.43C20.8776 16.4269 16.7714 20.3456 11.7276 21.255C8.9995 21.7519 6.40262 21.3769 4.14325 20.3925C3.61825 20.1581 3.12137 20.7581 3.39325 21.2644C5.87762 25.8394 10.9964 28.7644 16.7245 28.005C22.5651 27.2269 27.2432 22.4644 27.9464 16.6144C28.5089 11.7581 26.4464 7.37061 22.9964 4.66123C22.5557 4.32373 21.9089 4.73623 22.0401 5.27998Z" fill="url(#paint2_radial_106_1802)"/>
</g>
<path d="M22.0401 5.27998C22.5089 7.19248 22.5651 9.27373 22.0589 11.43C20.8776 16.4269 16.7714 20.3456 11.7276 21.255C8.9995 21.7519 6.40262 21.3769 4.14325 20.3925C3.61825 20.1581 3.12137 20.7581 3.39325 21.2644C5.87762 25.8394 10.9964 28.7644 16.7245 28.005C22.5651 27.2269 27.2432 22.4644 27.9464 16.6144C28.5089 11.7581 26.4464 7.37061 22.9964 4.66123C22.5557 4.32373 21.9089 4.73623 22.0401 5.27998Z" fill="url(#paint3_radial_106_1802)"/>
<g filter="url(#filter1_f_106_1802)">
<path d="M12.6379 25.3236C13.0283 25.3236 13.4026 25.1686 13.6787 24.8925C13.9547 24.6165 14.1098 24.2421 14.1098 23.8518C14.1098 23.4614 13.9547 23.087 13.6787 22.811C13.4026 22.535 13.0283 22.3799 12.6379 22.3799C12.2475 22.3799 11.8731 22.535 11.5971 22.811C11.3211 23.087 11.166 23.4614 11.166 23.8518C11.166 24.2421 11.3211 24.6165 11.5971 24.8925C11.8731 25.1686 12.2475 25.3236 12.6379 25.3236Z" stroke="url(#paint4_linear_106_1802)" stroke-width="0.15"/>
</g>
<g filter="url(#filter2_ii_106_1802)">
<path d="M12.6379 25.3236C13.0283 25.3236 13.4026 25.1686 13.6787 24.8925C13.9547 24.6165 14.1098 24.2421 14.1098 23.8518C14.1098 23.4614 13.9547 23.087 13.6787 22.811C13.4026 22.535 13.0283 22.3799 12.6379 22.3799C12.2475 22.3799 11.8731 22.535 11.5971 22.811C11.3211 23.087 11.166 23.4614 11.166 23.8518C11.166 24.2421 11.3211 24.6165 11.5971 24.8925C11.8731 25.1686 12.2475 25.3236 12.6379 25.3236Z" fill="url(#paint5_radial_106_1802)"/>
</g>
<g filter="url(#filter3_f_106_1802)">
<path d="M24.7492 13.2489C25.1396 13.2489 25.514 13.0939 25.79 12.8178C26.066 12.5418 26.2211 12.1674 26.2211 11.7771C26.2211 11.3867 26.066 11.0123 25.79 10.7363C25.514 10.4602 25.1396 10.3052 24.7492 10.3052C24.3589 10.3052 23.9845 10.4602 23.7084 10.7363C23.4324 11.0123 23.2773 11.3867 23.2773 11.7771C23.2773 12.1674 23.4324 12.5418 23.7084 12.8178C23.9845 13.0939 24.3589 13.2489 24.7492 13.2489Z" stroke="url(#paint6_linear_106_1802)" stroke-width="0.1"/>
</g>
<g filter="url(#filter4_ii_106_1802)">
<path d="M24.7492 13.2489C25.1396 13.2489 25.514 13.0939 25.79 12.8178C26.066 12.5418 26.2211 12.1674 26.2211 11.7771C26.2211 11.3867 26.066 11.0123 25.79 10.7363C25.514 10.4602 25.1396 10.3052 24.7492 10.3052C24.3589 10.3052 23.9845 10.4602 23.7084 10.7363C23.4324 11.0123 23.2773 11.3867 23.2773 11.7771C23.2773 12.1674 23.4324 12.5418 23.7084 12.8178C23.9845 13.0939 24.3589 13.2489 24.7492 13.2489Z" fill="url(#paint7_radial_106_1802)"/>
</g>
<g filter="url(#filter5_f_106_1802)">
<path d="M25.2191 17.7864C25.4653 17.7864 25.7014 17.6886 25.8754 17.5146C26.0495 17.3405 26.1473 17.1045 26.1473 16.8583C26.1473 16.6121 26.0495 16.3761 25.8754 16.202C25.7014 16.028 25.4653 15.9302 25.2191 15.9302C24.973 15.9302 24.7369 16.028 24.5629 16.202C24.3888 16.3761 24.291 16.6121 24.291 16.8583C24.291 17.1045 24.3888 17.3405 24.5629 17.5146C24.7369 17.6886 24.973 17.7864 25.2191 17.7864Z" stroke="url(#paint8_linear_106_1802)" stroke-width="0.1"/>
</g>
<g filter="url(#filter6_ii_106_1802)">
<path d="M25.2191 17.7864C25.4653 17.7864 25.7014 17.6886 25.8754 17.5146C26.0495 17.3405 26.1473 17.1045 26.1473 16.8583C26.1473 16.6121 26.0495 16.3761 25.8754 16.202C25.7014 16.028 25.4653 15.9302 25.2191 15.9302C24.973 15.9302 24.7369 16.028 24.5629 16.202C24.3888 16.3761 24.291 16.6121 24.291 16.8583C24.291 17.1045 24.3888 17.3405 24.5629 17.5146C24.7369 17.6886 24.973 17.7864 25.2191 17.7864Z" fill="url(#paint9_radial_106_1802)"/>
</g>
<g filter="url(#filter7_f_106_1802)">
<path d="M20.5312 23.4204C20.9006 23.4204 21.2663 23.3477 21.6075 23.2063C21.9488 23.065 22.2588 22.8578 22.52 22.5966C22.7812 22.3355 22.9883 22.0254 23.1297 21.6842C23.271 21.343 23.3438 20.9773 23.3438 20.6079C23.3438 20.2386 23.271 19.8728 23.1297 19.5316C22.9883 19.1904 22.7812 18.8803 22.52 18.6192C22.2588 18.358 21.9488 18.1508 21.6075 18.0095C21.2663 17.8682 20.9006 17.7954 20.5312 17.7954C19.7853 17.7954 19.07 18.0917 18.5425 18.6192C18.0151 19.1466 17.7188 19.862 17.7188 20.6079C17.7188 21.3538 18.0151 22.0692 18.5425 22.5966C19.07 23.1241 19.7853 23.4204 20.5312 23.4204Z" stroke="url(#paint10_linear_106_1802)" stroke-width="0.15"/>
</g>
<g filter="url(#filter8_ii_106_1802)">
<path d="M20.5312 23.4204C20.9006 23.4204 21.2663 23.3477 21.6075 23.2063C21.9488 23.065 22.2588 22.8578 22.52 22.5966C22.7812 22.3355 22.9883 22.0254 23.1297 21.6842C23.271 21.343 23.3438 20.9773 23.3438 20.6079C23.3438 20.2386 23.271 19.8728 23.1297 19.5316C22.9883 19.1904 22.7812 18.8803 22.52 18.6192C22.2588 18.358 21.9488 18.1508 21.6075 18.0095C21.2663 17.8682 20.9006 17.7954 20.5312 17.7954C19.7853 17.7954 19.07 18.0917 18.5425 18.6192C18.0151 19.1466 17.7188 19.862 17.7188 20.6079C17.7188 21.3538 18.0151 22.0692 18.5425 22.5966C19.07 23.1241 19.7853 23.4204 20.5312 23.4204Z" fill="url(#paint11_radial_106_1802)"/>
</g>
<defs>
<filter id="filter0_i_106_1802" x="3.31641" y="4.28906" width="24.9727" height="23.8354" filterUnits="userSpaceOnUse" color-interpolation-filters="sRGB">
<feFlood flood-opacity="0" result="BackgroundImageFix"/>
<feBlend mode="normal" in="SourceGraphic" in2="BackgroundImageFix" result="shape"/>
<feColorMatrix in="SourceAlpha" type="matrix" values="0 0 0 0 0 0 0 0 0 0 0 0 0 0 0 0 0 0 127 0" result="hardAlpha"/>
<feOffset dx="0.25" dy="-0.25"/>
<feGaussianBlur stdDeviation="0.25"/>
<feComposite in2="hardAlpha" operator="arithmetic" k2="-1" k3="1"/>
<feColorMatrix type="matrix" values="0 0 0 0 0.721569 0 0 0 0 0.372549 0 0 0 0 0.356863 0 0 0 1 0"/>
<feBlend mode="normal" in2="shape" result="effect1_innerShadow_106_1802"/>
</filter>
<filter id="filter1_f_106_1802" x="10.9418" y="22.1547" width="3.39375" height="3.39375" filterUnits="userSpaceOnUse" color-interpolation-filters="sRGB">
<feFlood flood-opacity="0" result="BackgroundImageFix"/>
<feBlend mode="normal" in="SourceGraphic" in2="BackgroundImageFix" result="shape"/>
<feGaussianBlur stdDeviation="0.075" result="effect1_foregroundBlur_106_1802"/>
</filter>
<filter id="filter2_ii_106_1802" x="11.041" y="22.1799" width="3.21836" height="3.26885" filterUnits="userSpaceOnUse" color-interpolation-filters="sRGB">
<feFlood flood-opacity="0" result="BackgroundImageFix"/>
<feBlend mode="normal" in="SourceGraphic" in2="BackgroundImageFix" result="shape"/>
<feColorMatrix in="SourceAlpha" type="matrix" values="0 0 0 0 0 0 0 0 0 0 0 0 0 0 0 0 0 0 127 0" result="hardAlpha"/>
<feOffset dx="-0.125" dy="0.125"/>
<feGaussianBlur stdDeviation="0.1875"/>
<feComposite in2="hardAlpha" operator="arithmetic" k2="-1" k3="1"/>
<feColorMatrix type="matrix" values="0 0 0 0 0.780392 0 0 0 0 0.462745 0 0 0 0 0.254902 0 0 0 1 0"/>
<feBlend mode="normal" in2="shape" result="effect1_innerShadow_106_1802"/>
<feColorMatrix in="SourceAlpha" type="matrix" values="0 0 0 0 0 0 0 0 0 0 0 0 0 0 0 0 0 0 127 0" result="hardAlpha"/>
<feOffset dx="0.15" dy="-0.2"/>
<feGaussianBlur stdDeviation="0.25"/>
<feComposite in2="hardAlpha" operator="arithmetic" k2="-1" k3="1"/>
<feColorMatrix type="matrix" values="0 0 0 0 1 0 0 0 0 0.839216 0 0 0 0 0.513726 0 0 0 1 0"/>
<feBlend mode="normal" in2="effect1_innerShadow_106_1802" result="effect2_innerShadow_106_1802"/>
</filter>
<filter id="filter3_f_106_1802" x="23.1266" y="10.1554" width="3.24492" height="3.24346" filterUnits="userSpaceOnUse" color-interpolation-filters="sRGB">
<feFlood flood-opacity="0" result="BackgroundImageFix"/>
<feBlend mode="normal" in="SourceGraphic" in2="BackgroundImageFix" result="shape"/>
<feGaussianBlur stdDeviation="0.05" result="effect1_foregroundBlur_106_1802"/>
</filter>
<filter id="filter4_ii_106_1802" x="23.1523" y="10.1552" width="3.21836" height="3.21885" filterUnits="userSpaceOnUse" color-interpolation-filters="sRGB">
<feFlood flood-opacity="0" result="BackgroundImageFix"/>
<feBlend mode="normal" in="SourceGraphic" in2="BackgroundImageFix" result="shape"/>
<feColorMatrix in="SourceAlpha" type="matrix" values="0 0 0 0 0 0 0 0 0 0 0 0 0 0 0 0 0 0 127 0" result="hardAlpha"/>
<feOffset dx="-0.125" dy="0.125"/>
<feGaussianBlur stdDeviation="0.1"/>
<feComposite in2="hardAlpha" operator="arithmetic" k2="-1" k3="1"/>
<feColorMatrix type="matrix" values="0 0 0 0 0.847059 0 0 0 0 0.552941 0 0 0 0 0.235294 0 0 0 1 0"/>
<feBlend mode="normal" in2="shape" result="effect1_innerShadow_106_1802"/>
<feColorMatrix in="SourceAlpha" type="matrix" values="0 0 0 0 0 0 0 0 0 0 0 0 0 0 0 0 0 0 127 0" result="hardAlpha"/>
<feOffset dx="0.15" dy="-0.15"/>
<feGaussianBlur stdDeviation="0.075"/>
<feComposite in2="hardAlpha" operator="arithmetic" k2="-1" k3="1"/>
<feColorMatrix type="matrix" values="0 0 0 0 1 0 0 0 0 0.921569 0 0 0 0 0.682353 0 0 0 1 0"/>
<feBlend mode="normal" in2="effect1_innerShadow_106_1802" result="effect2_innerShadow_106_1802"/>
</filter>
<filter id="filter5_f_106_1802" x="24.1402" y="15.7804" width="2.15703" height="2.15605" filterUnits="userSpaceOnUse" color-interpolation-filters="sRGB">
<feFlood flood-opacity="0" result="BackgroundImageFix"/>
<feBlend mode="normal" in="SourceGraphic" in2="BackgroundImageFix" result="shape"/>
<feGaussianBlur stdDeviation="0.05" result="effect1_foregroundBlur_106_1802"/>
</filter>
<filter id="filter6_ii_106_1802" x="24.216" y="15.8302" width="2.03047" height="2.03145" filterUnits="userSpaceOnUse" color-interpolation-filters="sRGB">
<feFlood flood-opacity="0" result="BackgroundImageFix"/>
<feBlend mode="normal" in="SourceGraphic" in2="BackgroundImageFix" result="shape"/>
<feColorMatrix in="SourceAlpha" type="matrix" values="0 0 0 0 0 0 0 0 0 0 0 0 0 0 0 0 0 0 127 0" result="hardAlpha"/>
<feOffset dx="-0.075" dy="0.075"/>
<feGaussianBlur stdDeviation="0.05"/>
<feComposite in2="hardAlpha" operator="arithmetic" k2="-1" k3="1"/>
<feColorMatrix type="matrix" values="0 0 0 0 0.847059 0 0 0 0 0.552941 0 0 0 0 0.235294 0 0 0 1 0"/>
<feBlend mode="normal" in2="shape" result="effect1_innerShadow_106_1802"/>
<feColorMatrix in="SourceAlpha" type="matrix" values="0 0 0 0 0 0 0 0 0 0 0 0 0 0 0 0 0 0 127 0" result="hardAlpha"/>
<feOffset dx="0.1" dy="-0.1"/>
<feGaussianBlur stdDeviation="0.05"/>
<feComposite in2="hardAlpha" operator="arithmetic" k2="-1" k3="1"/>
<feColorMatrix type="matrix" values="0 0 0 0 1 0 0 0 0 0.921569 0 0 0 0 0.682353 0 0 0 1 0"/>
<feBlend mode="normal" in2="effect1_innerShadow_106_1802" result="effect2_innerShadow_106_1802"/>
</filter>
<filter id="filter7_f_106_1802" x="17.4945" y="17.5702" width="6.07344" height="6.07539" filterUnits="userSpaceOnUse" color-interpolation-filters="sRGB">
<feFlood flood-opacity="0" result="BackgroundImageFix"/>
<feBlend mode="normal" in="SourceGraphic" in2="BackgroundImageFix" result="shape"/>
<feGaussianBlur stdDeviation="0.075" result="effect1_foregroundBlur_106_1802"/>
</filter>
<filter id="filter8_ii_106_1802" x="17.5938" y="17.5954" width="5.9" height="5.95" filterUnits="userSpaceOnUse" color-interpolation-filters="sRGB">
<feFlood flood-opacity="0" result="BackgroundImageFix"/>
<feBlend mode="normal" in="SourceGraphic" in2="BackgroundImageFix" result="shape"/>
<feColorMatrix in="SourceAlpha" type="matrix" values="0 0 0 0 0 0 0 0 0 0 0 0 0 0 0 0 0 0 127 0" result="hardAlpha"/>
<feOffset dx="-0.125" dy="0.125"/>
<feGaussianBlur stdDeviation="0.1875"/>
<feComposite in2="hardAlpha" operator="arithmetic" k2="-1" k3="1"/>
<feColorMatrix type="matrix" values="0 0 0 0 0.8 0 0 0 0 0.537255 0 0 0 0 0.270588 0 0 0 1 0"/>
<feBlend mode="normal" in2="shape" result="effect1_innerShadow_106_1802"/>
<feColorMatrix in="SourceAlpha" type="matrix" values="0 0 0 0 0 0 0 0 0 0 0 0 0 0 0 0 0 0 127 0" result="hardAlpha"/>
<feOffset dx="0.15" dy="-0.2"/>
<feGaussianBlur stdDeviation="0.25"/>
<feComposite in2="hardAlpha" operator="arithmetic" k2="-1" k3="1"/>
<feColorMatrix type="matrix" values="0 0 0 0 1 0 0 0 0 0.882353 0 0 0 0 0.611765 0 0 0 1 0"/>
<feBlend mode="normal" in2="effect1_innerShadow_106_1802" result="effect2_innerShadow_106_1802"/>
</filter>
<linearGradient id="paint0_linear_106_1802" x1="26.8945" y1="10.4887" x2="10.0776" y2="27.4809" gradientUnits="userSpaceOnUse">
<stop stop-color="#FFD874"/>
<stop offset="1" stop-color="#FFBC4C"/>
</linearGradient>
<radialGradient id="paint1_radial_106_1802" cx="0" cy="0" r="1" gradientUnits="userSpaceOnUse" gradientTransform="translate(13.7692 15.5862) rotate(-23.408) scale(14.749 15.4596)">
<stop offset="0.769" stop-color="#FFECAE" stop-opacity="0"/>
<stop offset="0.984" stop-color="#FFECAE"/>
</radialGradient>
<radialGradient id="paint2_radial_106_1802" cx="0" cy="0" r="1" gradientUnits="userSpaceOnUse" gradientTransform="translate(8.16044 29.2631) rotate(-39.846) scale(13.1369 13.7698)">
<stop stop-color="#FF984F"/>
<stop offset="1" stop-color="#FF984F" stop-opacity="0"/>
</radialGradient>
<radialGradient id="paint3_radial_106_1802" cx="0" cy="0" r="1" gradientUnits="userSpaceOnUse" gradientTransform="translate(20.7862 10.7957) rotate(13.627) scale(2.4639 6.23989)">
<stop offset="0.23" stop-color="#BA935B"/>
<stop offset="0.979" stop-color="#BA935B" stop-opacity="0"/>
</radialGradient>
<linearGradient id="paint4_linear_106_1802" x1="13.9288" y1="23.1093" x2="12.2573" y2="23.983" gradientUnits="userSpaceOnUse">
<stop stop-color="#D0883B"/>
<stop offset="1" stop-color="#FFCA6D"/>
</linearGradient>
<radialGradient id="paint5_radial_106_1802" cx="0" cy="0" r="1" gradientUnits="userSpaceOnUse" gradientTransform="translate(12.0122 24.1214) rotate(-22.978) scale(2.27794)">
<stop stop-color="#FFBA6A"/>
<stop offset="1" stop-color="#EB9E58"/>
</radialGradient>
<linearGradient id="paint6_linear_106_1802" x1="26.013" y1="10.5255" x2="23.7133" y2="12.9883" gradientUnits="userSpaceOnUse">
<stop stop-color="#E7AC47"/>
<stop offset="1" stop-color="#FFE9A7"/>
</linearGradient>
<radialGradient id="paint7_radial_106_1802" cx="0" cy="0" r="1" gradientUnits="userSpaceOnUse" gradientTransform="translate(24.1229 12.0465) rotate(-15.521) scale(2.17657)">
<stop stop-color="#FFD778"/>
<stop offset="1" stop-color="#FFC767"/>
</radialGradient>
<linearGradient id="paint8_linear_106_1802" x1="26.016" y1="16.0699" x2="24.5657" y2="17.6224" gradientUnits="userSpaceOnUse">
<stop stop-color="#E7AC47"/>
<stop offset="1" stop-color="#FFE9A7"/>
</linearGradient>
<radialGradient id="paint9_radial_106_1802" cx="0" cy="0" r="1" gradientUnits="userSpaceOnUse" gradientTransform="translate(24.8236 17.0279) rotate(-15.521) scale(1.37249)">
<stop stop-color="#FFDE8F"/>
<stop offset="1" stop-color="#FFC25B"/>
</radialGradient>
<linearGradient id="paint10_linear_106_1802" x1="22.9978" y1="19.1895" x2="19.8047" y2="20.8592" gradientUnits="userSpaceOnUse">
<stop stop-color="#E2A842"/>
<stop offset="1" stop-color="#FFD778"/>
</linearGradient>
<radialGradient id="paint11_radial_106_1802" cx="0" cy="0" r="1" gradientUnits="userSpaceOnUse" gradientTransform="translate(19.3361 21.1231) rotate(-22.978) scale(4.35275)">
<stop stop-color="#FFC75F"/>
<stop offset="1" stop-color="#FABC5A"/>
</radialGradient>
</defs>
</svg>
