<svg width="31" height="29" viewBox="0 0 31 29" fill="none" xmlns="http://www.w3.org/2000/svg">
<path d="M15.4977 6.81453C10.9621 6.81453 7.28541 10.2549 7.28541 14.4966C7.28541 18.7405 10.9621 22.1809 15.4977 22.1809C20.0332 22.1809 23.71 18.7405 23.71 14.4966C23.71 10.2549 20.0332 6.81453 15.4977 6.81453ZM13.7313 5.4151H17.2665C17.43 5.4151 17.5812 5.33976 17.6764 5.2142C17.7691 5.09092 17.7911 4.92884 17.735 4.78501L15.9661 0.305912C15.8929 0.120995 15.7075 0 15.4977 0C15.2879 0 15.1024 0.123278 15.0292 0.305912L13.2604 4.78729C13.2043 4.93112 13.2263 5.09092 13.319 5.21648C13.4141 5.34205 13.5678 5.4151 13.7313 5.4151ZM23.6124 9.24585C23.7051 9.33488 23.8344 9.38282 23.9637 9.38282C23.993 9.38282 24.0222 9.38054 24.0515 9.37597C24.2126 9.34858 24.3467 9.25041 24.4175 9.11115L26.5547 4.77131C26.6426 4.59325 26.6011 4.3855 26.4547 4.24624C26.3059 4.10698 26.0814 4.07046 25.8911 4.15036L21.2555 6.15248C21.1067 6.21641 21.0018 6.34425 20.9725 6.49492C20.9433 6.6456 20.9969 6.79855 21.1092 6.90813L23.6124 9.24585ZM30.6682 14.0605L25.8765 12.4077C25.7228 12.3552 25.552 12.3757 25.4178 12.4625C25.2836 12.5492 25.2055 12.6908 25.2055 12.8437L25.208 16.1517C25.208 16.3047 25.2885 16.4485 25.4227 16.5352C25.5081 16.5877 25.6081 16.6174 25.7081 16.6174C25.7667 16.6174 25.8252 16.6083 25.8814 16.5877L30.6731 14.9349C30.8683 14.8687 31 14.6929 31 14.4943C30.9951 14.3025 30.8658 14.129 30.6682 14.0605ZM24.4175 19.8866C24.3838 19.8181 24.3329 19.7583 24.2692 19.7122C24.2055 19.6661 24.1308 19.635 24.0515 19.6217C23.8905 19.5966 23.7246 19.6446 23.6124 19.7519L21.1116 22.0919C20.9969 22.1992 20.9433 22.3544 20.9725 22.5051C21.0018 22.6535 21.1067 22.7836 21.2555 22.8475L25.8936 24.8474C25.9594 24.877 26.0302 24.8885 26.1034 24.8885C26.2327 24.8885 26.3596 24.8405 26.4547 24.7515C26.6035 24.6122 26.6426 24.4045 26.5547 24.2264L24.4175 19.8866ZM17.2641 23.5803L13.7288 23.5826C13.5654 23.5826 13.4141 23.658 13.3214 23.7835C13.2287 23.9091 13.2067 24.0689 13.2604 24.2104L15.0292 28.6941C15.1024 28.8767 15.2879 29 15.4977 29C15.7075 29 15.8929 28.8767 15.9661 28.6941L17.735 24.2104C17.7911 24.0666 17.7691 23.9068 17.6764 23.7812C17.5812 23.6557 17.43 23.5803 17.2641 23.5803ZM7.383 19.7519C7.26833 19.6446 7.10486 19.5966 6.94384 19.6217C6.78281 19.6491 6.64618 19.7473 6.57787 19.8866L4.44063 24.2264C4.3528 24.4045 4.39427 24.6145 4.5431 24.7515C4.61513 24.819 4.70758 24.8641 4.80794 24.8809C4.9083 24.8976 5.01173 24.8851 5.10425 24.8451L9.74226 22.843C9.81541 22.8114 9.87934 22.7638 9.92862 22.7042C9.97789 22.6446 10.0111 22.5747 10.0253 22.5005C10.0545 22.3498 10.0009 22.1969 9.8862 22.0896L7.383 19.7519ZM5.29211 16.6197C5.39214 16.6197 5.49217 16.59 5.57756 16.5352C5.71175 16.4485 5.79226 16.3047 5.79226 16.1517L5.78982 12.8437C5.78984 12.7686 5.77045 12.6945 5.73331 12.6278C5.69618 12.5612 5.64238 12.5039 5.57651 12.4609C5.51064 12.4178 5.43463 12.3903 5.35496 12.3807C5.27529 12.371 5.1943 12.3795 5.11889 12.4054L0.327172 14.0605C0.23123 14.0935 0.148404 14.1531 0.0898906 14.2315C0.0313776 14.3099 0 14.4032 0 14.4989C0 14.5945 0.0313776 14.6878 0.0898906 14.7662C0.148404 14.8446 0.23123 14.9043 0.327172 14.9372L5.12133 16.59C5.17744 16.6106 5.23356 16.6197 5.29211 16.6197ZM6.58031 9.11115C6.6141 9.17956 6.66504 9.23932 6.7288 9.28535C6.79257 9.33139 6.86727 9.36233 6.94656 9.37556C7.02584 9.38878 7.10737 9.38389 7.1842 9.36131C7.26104 9.33873 7.33091 9.29912 7.38788 9.24585L9.8862 6.90585C10.0009 6.79627 10.0521 6.64331 10.0228 6.49264C9.99355 6.34425 9.88864 6.21641 9.73982 6.15248L5.09937 4.15264C4.90907 4.07046 4.68705 4.10927 4.53822 4.24852C4.38939 4.38778 4.35036 4.59553 4.43819 4.7736L6.58031 9.11115Z" fill="#FCC21B"/>
</svg>
